<svg width="74" height="74" viewBox="0 0 74 74" fill="none" xmlns="http://www.w3.org/2000/svg">
<path d="M59.7517 14.6064C53.7184 8.62015 45.7251 5.32764 37.2304 5.32764C37.1876 5.32764 37.1448 5.32764 37.1021 5.32764C19.4674 5.39695 5.17752 19.7992 5.24536 37.4342C5.27854 45.9771 8.63661 53.9949 14.7002 60.0113C20.7342 65.9983 28.7268 69.2908 37.2215 69.2901C37.2643 69.2901 37.3078 69.2901 37.3506 69.2901C54.9845 69.2215 69.2751 54.8193 69.2065 37.1842C69.1741 28.6422 65.816 20.6236 59.7517 14.6064ZM37.3425 67.0779C29.4111 67.1074 21.9037 64.0427 16.259 58.4414C10.6143 52.8401 7.4885 45.3768 7.45753 37.4254C7.39411 21.0108 20.6959 7.604 37.1102 7.53985C37.1507 7.53985 37.1891 7.53985 37.2296 7.53985C45.1367 7.53985 52.5777 10.6045 58.1936 16.1771C63.8383 21.7777 66.9641 29.2409 66.9951 37.1931C67.0585 53.6077 53.756 67.0137 37.3425 67.0779Z" fill="#2796E7"/>
<path d="M48.9034 29.0042C49.1755 28.5256 49.0546 27.9202 48.6195 27.5825C48.1845 27.2447 47.5687 27.2787 47.172 27.6614L37.816 36.7233C37.6501 36.7086 37.4739 36.7086 37.3205 36.7012C34.3798 36.713 31.9965 39.1147 32.0069 42.0555C32.012 43.4802 32.5724 44.8171 33.5841 45.8207C34.5899 46.8191 35.9224 47.3678 37.3375 47.3678C37.3448 47.3678 37.3529 47.3678 37.3611 47.3678C38.7857 47.3626 40.1233 46.8022 41.1269 45.7912C42.1298 44.7795 42.6791 43.4381 42.674 42.0142C42.6717 41.4648 42.584 40.9236 42.4122 40.3971L48.9034 29.0042ZM40.1823 40.7577C40.3659 41.1677 40.4603 41.5931 40.4618 42.0223C40.4655 42.8563 40.1432 43.6409 39.5563 44.2331C38.9686 44.8252 38.1869 45.1526 37.3522 45.1555C36.5182 45.1393 35.7336 44.8377 35.1415 44.25C34.5494 43.663 34.222 42.8807 34.219 42.0467C34.2124 40.3263 35.6075 38.9208 37.3271 38.9134C37.3293 38.9134 37.3323 38.9134 37.3345 38.9134C37.5447 38.9134 37.7592 38.9355 37.9724 38.9798C38.3292 39.0521 38.7009 38.9451 38.9649 38.69L43.1437 34.6431L40.2295 39.7577C40.0555 40.0638 40.0378 40.4354 40.1823 40.7577Z" fill="#2796E7"/>
<path d="M37.4234 55.0117C37.419 55.0117 37.4145 55.0117 37.4094 55.0117C35.4899 55.0191 33.9348 56.5868 33.9414 58.5063C33.9451 59.4361 34.3101 60.3092 34.9708 60.964C35.6278 61.6159 36.498 61.9735 37.4226 61.9735C37.4271 61.9735 37.4315 61.9735 37.4367 61.9735C39.3561 61.9662 40.9112 60.3985 40.9046 58.479C40.898 56.564 39.3377 55.0117 37.4234 55.0117ZM37.4285 59.7613C37.4271 59.7613 37.4256 59.7613 37.4234 59.7613C37.0857 59.7613 36.7686 59.6308 36.5297 59.3934C36.2893 59.1552 36.1558 58.8366 36.1543 58.4974C36.1521 57.7976 36.7184 57.2261 37.4182 57.2232C37.4197 57.2232 37.4212 57.2232 37.4234 57.2232C38.121 57.2232 38.6895 57.7895 38.6924 58.4871C38.6961 59.1876 38.1283 59.7584 37.4285 59.7613Z" fill="#2796E7"/>
<path d="M37.2386 13.2363C37.2076 13.2363 37.1752 13.2363 37.1449 13.2363C30.7518 13.2607 24.7509 15.7737 20.2476 20.3117C15.7451 24.8497 13.2786 30.8699 13.3029 37.2632C13.3287 43.6616 15.8447 49.6656 20.3885 54.1704C20.5964 54.3754 20.8759 54.4912 21.1672 54.4912C21.1797 54.4912 21.1915 54.4912 21.204 54.4904C21.5086 54.4801 21.7954 54.3451 21.9967 54.1166L27.008 48.4378C27.4121 47.9799 27.3686 47.2816 26.9107 46.8767C26.4528 46.4741 25.7537 46.5176 25.3496 46.9748L21.1347 51.7517C17.5245 47.7727 15.5372 42.6698 15.5158 37.2558C15.4937 31.4532 17.7317 25.9897 21.819 21.8713C25.9064 17.7529 31.352 15.4721 37.1545 15.45C37.1833 15.45 37.2113 15.45 37.2393 15.45C49.1777 15.45 58.9149 25.1395 58.9606 37.0891C58.9813 42.5216 57.0213 47.6569 53.4169 51.6698L49.16 47.4453C48.7256 47.0139 48.0259 47.0168 47.596 47.4512C47.1653 47.8847 47.1683 48.5853 47.6019 49.0152L52.6633 54.0384C52.8705 54.2441 53.1507 54.3599 53.4427 54.3599C53.4442 54.3599 53.4457 54.3599 53.4472 54.3599C53.7399 54.3584 54.0208 54.2412 54.228 54.0332C58.7313 49.4952 61.1979 43.4751 61.1735 37.081C61.1204 23.9117 50.3936 13.2363 37.2386 13.2363Z" fill="#2796E7"/>
</svg>
