<svg width="50" height="50" viewBox="0 0 50 50" fill="none" xmlns="http://www.w3.org/2000/svg">
<path d="M39.9865 7.10283H30.3255V5.318C30.3255 4.90424 29.9901 4.56934 29.5768 4.56934H20.3361C19.9223 4.56934 19.5874 4.90424 19.5874 5.318V7.10283H9.92642C9.51264 7.10283 9.17773 7.43773 9.17773 7.85149V44.5941C9.17773 45.0074 9.51264 45.3428 9.92642 45.3428H39.987C40.4003 45.3428 40.7357 45.0074 40.7357 44.5941V7.85149C40.7352 7.43773 40.3998 7.10283 39.9865 7.10283ZM21.0848 6.06667H28.8282V9.0863H21.0848V6.06667ZM39.2378 43.8454H10.6751V8.60016H19.5874V9.83496C19.5874 10.2487 19.9223 10.5836 20.3361 10.5836H29.5768C29.9901 10.5836 30.3255 10.2487 30.3255 9.83496V8.60016H39.2378V43.8454Z" fill="white"/>
<path d="M16.2725 18.6431H13.3795C12.9658 18.6431 12.6309 18.978 12.6309 19.3917C12.6309 19.8055 12.9658 20.1404 13.3795 20.1404H16.2725C16.6862 20.1404 17.0211 19.8055 17.0211 19.3917C17.0211 18.978 16.6862 18.6431 16.2725 18.6431Z" fill="white"/>
<path d="M19.0879 19.3917C19.0879 19.8055 19.4228 20.1404 19.8366 20.1404H36.5337C36.947 20.1404 37.2824 19.8055 37.2824 19.3917C37.2824 18.978 36.947 18.6431 36.5337 18.6431H19.8366C19.4233 18.6431 19.0879 18.9785 19.0879 19.3917Z" fill="white"/>
<path d="M16.2725 25.3262H13.3795C12.9658 25.3262 12.6309 25.6616 12.6309 26.0748C12.6309 26.4881 12.9658 26.8235 13.3795 26.8235H16.2725C16.6862 26.8235 17.0211 26.4881 17.0211 26.0748C17.0211 25.6616 16.6862 25.3262 16.2725 25.3262Z" fill="white"/>
<path d="M36.5337 25.3262H19.8366C19.4228 25.3262 19.0879 25.6616 19.0879 26.0748C19.0879 26.4881 19.4228 26.8235 19.8366 26.8235H36.5337C36.947 26.8235 37.2824 26.4881 37.2824 26.0748C37.2824 25.6616 36.947 25.3262 36.5337 25.3262Z" fill="white"/>
<path d="M16.2725 32.0054H13.3795C12.9658 32.0054 12.6309 32.3408 12.6309 32.754C12.6309 33.1673 12.9658 33.5027 13.3795 33.5027H16.2725C16.6862 33.5027 17.0211 33.1673 17.0211 32.754C17.0211 32.3408 16.6862 32.0054 16.2725 32.0054Z" fill="white"/>
<path d="M36.5337 32.0054H19.8366C19.4228 32.0054 19.0879 32.3408 19.0879 32.754C19.0879 33.1673 19.4228 33.5027 19.8366 33.5027H36.5337C36.947 33.5027 37.2824 33.1673 37.2824 32.754C37.2824 32.3408 36.947 32.0054 36.5337 32.0054Z" fill="white"/>
</svg>
