<svg width="50" height="50" viewBox="0 0 50 50" fill="none" xmlns="http://www.w3.org/2000/svg">
<path d="M42.8904 23.4033C42.8904 23.3998 42.8894 23.3964 42.8894 23.3929C42.8844 23.2967 42.8625 23.2055 42.8246 23.1223C42.8241 23.1208 42.8231 23.1198 42.8226 23.1183C42.7813 23.0296 42.724 22.9509 42.6532 22.8852C42.6517 22.8837 42.6512 22.8822 42.6497 22.8807L35.3515 16.1873C35.1821 14.7633 34.1886 13.5905 32.8613 13.161C33.0322 12.1331 33.7143 10.0619 36.4456 9.78739C36.8562 9.74604 37.1556 9.37983 37.1143 8.96878C37.0734 8.55773 36.7002 8.26228 36.2957 8.30014C32.8563 8.64642 31.6237 11.2203 31.3641 13.0045C30.1075 13.1361 29.0423 13.9128 28.4987 14.9945L7.19489 22.7292C7.18891 22.7312 7.18443 22.7347 7.17845 22.7372C7.15254 22.7471 7.12812 22.7601 7.10371 22.7731C7.08428 22.7835 7.06385 22.793 7.04542 22.8044C7.02449 22.8179 7.00606 22.8338 6.98662 22.8493C6.96769 22.8642 6.94826 22.8782 6.93132 22.8951C6.91438 22.9116 6.89993 22.93 6.88448 22.9479C6.86904 22.9664 6.8526 22.9838 6.83865 23.0032C6.8247 23.0232 6.81324 23.0451 6.80128 23.0665C6.78982 23.0869 6.77786 23.1064 6.76839 23.1273C6.75843 23.1492 6.75195 23.1721 6.74448 23.1951C6.73651 23.2185 6.72804 23.2414 6.72256 23.2658C6.71807 23.2867 6.71608 23.3082 6.71309 23.3296C6.7091 23.3575 6.70512 23.3854 6.70462 23.4143C6.70462 23.4203 6.70312 23.4257 6.70312 23.4312V38.6585C6.70312 39.071 7.03744 39.4058 7.45049 39.4058H42.1465C42.5591 39.4058 42.8939 39.071 42.8939 38.6585V23.4317C42.8934 23.4218 42.8909 23.4128 42.8904 23.4033ZM31.4119 26.9981C29.8121 26.9981 28.5106 28.3065 28.5106 29.9148C28.5106 30.6961 27.8804 31.3323 27.1061 31.3323C26.3323 31.3323 25.7036 30.6981 25.7016 29.9183C25.7016 29.9178 25.7016 29.9173 25.7016 29.9168C25.7016 28.308 24.4007 27.0001 22.8013 27.0001C21.2009 27.0001 19.899 28.3085 19.899 29.9168C19.899 30.6981 19.2683 31.3343 18.4935 31.3343C17.7182 31.3343 17.088 30.6986 17.088 29.9168V29.9163V29.9158C17.088 28.307 15.7876 26.9991 14.1887 26.9991C12.5893 26.9991 11.2884 28.3075 11.2884 29.9158C11.2884 30.6971 10.6572 31.3333 9.88091 31.3333C9.05482 31.3333 8.27358 30.6443 8.27358 29.9158C8.27358 29.7997 8.24468 29.6911 8.19735 29.593V24.1791H41.3987V27.2811C41.019 27.0938 40.5646 26.9996 40.0275 26.9996C40.026 26.9996 40.0245 26.9996 40.0225 26.9996C38.4237 27.0021 37.1227 28.311 37.1227 29.9163C37.1227 30.6976 36.4925 31.3338 35.7187 31.3338C34.9429 31.3338 34.3122 30.6981 34.3122 29.9163V29.9158V29.9153C34.3117 28.3065 33.0108 26.9981 31.4119 26.9981ZM31.7452 20.252C33.2629 20.252 34.5648 19.3158 35.1079 17.9914L40.2243 22.6844H11.6985L28.1165 16.7234C28.1728 18.678 29.7772 20.252 31.7452 20.252ZM31.7452 14.4783C32.9251 14.4783 33.8847 15.4379 33.8847 16.6178C33.8847 17.7976 32.9251 18.7572 31.7452 18.7572C30.5654 18.7572 29.6058 17.7976 29.6058 16.6178C29.6058 15.4379 30.5654 14.4783 31.7452 14.4783ZM8.19735 37.9116V32.3288C8.68911 32.6407 9.27106 32.8271 9.88091 32.8271C11.4813 32.8271 12.7832 31.5207 12.7832 29.9148C12.7832 29.1306 13.4139 28.4929 14.1887 28.4929C14.963 28.4929 15.5932 29.1306 15.5932 29.9148V29.9153V29.9158C15.5932 31.5217 16.8942 32.8281 18.4935 32.8281C20.0924 32.8281 21.3938 31.5217 21.3938 29.9158C21.3938 29.1316 22.025 28.4939 22.8013 28.4939C23.5756 28.4939 24.2048 29.1301 24.2068 29.9128C24.2068 29.9133 24.2068 29.9138 24.2068 29.9143C24.2068 31.5202 25.5072 32.8266 27.1061 32.8266C28.705 32.8266 30.0054 31.5202 30.0054 29.9143C30.0054 29.1301 30.6366 28.4924 31.4119 28.4924C32.1867 28.4924 32.8169 29.1301 32.8169 29.9143V29.9148V29.9153C32.8169 31.5212 34.1183 32.8276 35.7182 32.8276C37.3166 32.8276 38.617 31.5212 38.617 29.9153C38.617 29.1326 39.2487 28.4944 40.024 28.4934C40.0255 28.4934 40.0265 28.4934 40.0275 28.4934C40.6777 28.4934 40.8899 28.6782 41.0235 28.8775C41.2711 29.2487 41.3967 29.9781 41.3967 31.0444C41.3967 31.0493 41.3982 31.0538 41.3982 31.0588V37.9106H8.19735V37.9116Z" fill="white"/>
</svg>
