<svg width="50" height="50" viewBox="0 0 50 50" fill="none" xmlns="http://www.w3.org/2000/svg">
<path d="M23.6648 12.5889C20.9036 12.5898 18.2048 13.4262 15.9094 14.9921C13.614 16.558 11.8251 18.7832 10.7689 21.3864C9.71275 23.9896 9.43666 26.8539 9.97556 29.6172C10.5145 32.3804 11.8442 34.9187 13.7966 36.9109C15.749 38.9032 18.2364 40.26 20.9445 40.8099C23.6525 41.3598 26.4595 41.0781 29.0106 40.0003C31.5617 38.9226 33.7424 37.0972 35.277 34.755C36.8116 32.4127 37.6312 29.6588 37.6322 26.8413C37.6283 23.0626 36.1555 19.4397 33.537 16.7677C30.9184 14.0957 27.368 12.5928 23.6648 12.5889ZM23.6648 39.6037C21.1913 39.6027 18.7736 38.8534 16.7175 37.4505C14.6613 36.0475 13.059 34.054 12.1131 31.7219C11.1672 29.3898 10.9203 26.8238 11.4034 24.3485C11.8865 21.8732 13.0781 19.5996 14.8274 17.8152C16.5768 16.0309 18.8054 14.8159 21.2314 14.3238C23.6574 13.8318 26.1719 14.0848 28.457 15.0509C30.7421 16.017 32.6952 17.6528 34.0692 19.7515C35.4433 21.8501 36.1767 24.3174 36.1767 26.8413C36.1729 30.2258 34.8533 33.4704 32.5075 35.8631C30.1618 38.2558 26.9815 39.6011 23.6648 39.6037Z" fill="white"/>
<path d="M45.8464 13.8613C45.6534 13.8613 45.4683 13.9396 45.3318 14.0788C45.1953 14.2181 45.1187 14.407 45.1187 14.6039V20.297H43.6632V14.6039C43.6632 14.407 43.5865 14.2181 43.4501 14.0788C43.3136 13.9396 43.1285 13.8613 42.9355 13.8613C42.7425 13.8613 42.5574 13.9396 42.4209 14.0788C42.2844 14.2181 42.2078 14.407 42.2078 14.6039V20.297H40.7523V14.6039C40.7523 14.407 40.6757 14.2181 40.5392 14.0788C40.4027 13.9396 40.2176 13.8613 40.0246 13.8613C39.8316 13.8613 39.6465 13.9396 39.51 14.0788C39.3735 14.2181 39.2969 14.407 39.2969 14.6039V21.0395C39.2969 21.2365 39.3735 21.4254 39.51 21.5646C39.6465 21.7039 39.8316 21.7821 40.0246 21.7821H42.2078V38.8613C42.2078 39.0583 42.2844 39.2472 42.4209 39.3864C42.5574 39.5257 42.7425 39.6039 42.9355 39.6039C43.1285 39.6039 43.3136 39.5257 43.4501 39.3864C43.5865 39.2472 43.6632 39.0583 43.6632 38.8613V21.7821H45.8464C46.0394 21.7821 46.2245 21.7039 46.361 21.5646C46.4974 21.4254 46.5741 21.2365 46.5741 21.0395V14.6039C46.5741 14.407 46.4974 14.2181 46.361 14.0788C46.2245 13.9396 46.0394 13.8613 45.8464 13.8613Z" fill="white"/>
<path d="M6.35964 13.8613C6.23055 13.8025 6.08747 13.7834 5.9479 13.8063C5.80833 13.8291 5.6783 13.893 5.5737 13.99C5.39905 14.1484 1.34806 18.0246 1.34806 27.9454C1.34481 28.045 1.36122 28.1442 1.39633 28.2372C1.43145 28.3302 1.48453 28.415 1.55244 28.4866C1.62034 28.5582 1.70167 28.6151 1.79158 28.654C1.88149 28.6928 1.97814 28.7128 2.07578 28.7128H5.33598V38.8613C5.33598 39.0582 5.41265 39.2471 5.54913 39.3864C5.6856 39.5256 5.8707 39.6038 6.0637 39.6038C6.25671 39.6038 6.44181 39.5256 6.57828 39.3864C6.71476 39.2471 6.79143 39.0582 6.79143 38.8613V14.5642C6.79619 14.4165 6.75764 14.2707 6.68072 14.1455C6.6038 14.0203 6.492 13.9213 6.35964 13.8613ZM5.33598 27.2276H2.81321C2.91024 21.9355 4.28806 18.5939 5.33598 16.792V27.2276Z" fill="white"/>
<path d="M32.0193 27.2969C31.8289 27.267 31.6347 27.3154 31.4792 27.4314C31.3237 27.5474 31.2196 27.7216 31.1897 27.9157C30.9189 29.6998 30.0344 31.3272 28.6947 32.5065C27.3551 33.6857 25.6477 34.3397 23.8785 34.3514H23.7718C21.7896 34.3612 19.8848 33.5672 18.4764 32.144C17.068 30.7207 16.2713 28.7849 16.2617 26.7623C16.252 24.7397 17.0302 22.796 18.425 21.3588C19.8197 19.9217 21.7169 19.1088 23.699 19.0989C23.892 19.0989 24.0771 19.0207 24.2136 18.8814C24.3501 18.7422 24.4267 18.5533 24.4267 18.3563C24.4267 18.1594 24.3501 17.9705 24.2136 17.8313C24.0771 17.692 23.892 17.6138 23.699 17.6138C21.3315 17.6236 19.0648 18.5927 17.3975 20.308C15.7303 22.0232 14.799 24.344 14.8087 26.7598C14.8183 29.1756 15.7681 31.4886 17.449 33.1899C19.1299 34.8912 21.4043 35.8414 23.7718 35.8316H23.8591C25.9716 35.8173 28.0102 35.0364 29.6101 33.6287C31.2101 32.2211 32.267 30.2785 32.5918 28.1484C32.6233 27.9584 32.5811 27.7634 32.4743 27.6045C32.3675 27.4456 32.2043 27.3353 32.0193 27.2969Z" fill="white"/>
<path d="M27.7848 20.2573C28.9128 21.0014 29.8243 22.0409 30.424 23.2672C30.5102 23.4438 30.6616 23.5782 30.845 23.6409C31.0283 23.7036 31.2285 23.6894 31.4016 23.6014C31.5746 23.5134 31.7064 23.3589 31.7678 23.1718C31.8292 22.9848 31.8153 22.7805 31.7291 22.6039C31.0146 21.1379 29.9271 19.8949 28.5804 19.0049C28.4183 18.8979 28.2212 18.8609 28.0324 18.9023C27.8436 18.9436 27.6786 19.0597 27.5738 19.2252C27.4689 19.3906 27.4327 19.5918 27.4732 19.7844C27.5137 19.977 27.6275 20.1454 27.7897 20.2524L27.7848 20.2573Z" fill="white"/>
</svg>
