<svg width="331" height="200" viewBox="0 0 331 200" fill="none" xmlns="http://www.w3.org/2000/svg">
<g clip-path="url(#clip0_1_130)">
<path d="M331 96.2322H140.052V169.081H331V96.2322Z" fill="#93DC33"/>
<path d="M263.541 116.331V153.424H257.375V146.754C256.055 149.281 254.091 151.416 251.68 152.94C249.34 154.362 246.647 155.099 243.909 155.066C241.49 155.156 239.081 154.711 236.855 153.762C234.628 152.814 232.639 151.386 231.029 149.58C227.767 145.914 226.136 141.068 226.136 135.043C226.136 129.018 227.72 124.164 230.888 120.481C232.47 118.682 234.436 117.26 236.641 116.322C238.846 115.383 241.234 114.951 243.629 115.059C246.471 114.988 249.277 115.711 251.731 117.146C254.116 118.645 256.035 120.778 257.273 123.307V116.331H263.541ZM257.375 135.221C257.549 131.541 256.325 127.931 253.948 125.115C251.607 122.741 248.427 121.379 245.092 121.322C241.757 121.265 238.533 122.517 236.112 124.809C233.98 127.16 232.914 130.444 232.914 134.661C232.914 139.142 233.989 142.6 236.137 145.036C237.3 146.278 238.722 147.249 240.304 147.878C241.885 148.507 243.586 148.78 245.285 148.676C246.939 148.765 248.593 148.495 250.132 147.884C251.672 147.273 253.06 146.336 254.203 145.137C256.305 142.77 257.375 139.473 257.375 135.221Z" fill="white"/>
<path d="M276.243 153.424V116.331H282.448V122.06C283.884 119.827 285.866 117.996 288.206 116.739C290.622 115.539 293.293 114.94 295.99 114.995C300.373 114.995 303.8 116.166 306.259 118.483C307.52 119.748 308.501 121.264 309.138 122.933C309.774 124.602 310.052 126.386 309.953 128.17V153.424H303.456V131.581C303.456 127.762 302.666 125.025 301.086 123.205C299.507 121.385 297.06 120.468 293.761 120.468C291.982 120.444 290.218 120.8 288.588 121.512C287.101 122.173 285.791 123.176 284.766 124.44C283.976 125.42 283.403 126.557 283.085 127.775C282.661 129.907 282.49 132.082 282.575 134.254V153.424H276.243Z" fill="white"/>
<path d="M123.757 92.0825C123.624 91.469 123.35 90.895 122.956 90.406C122.562 89.9171 122.059 89.5267 121.488 89.2659C120.916 89.0052 120.292 88.8812 119.664 88.9039C119.036 88.9266 118.422 89.0953 117.871 89.3966C113.215 91.8788 108.756 94.7129 104.532 97.8742C97.6018 103.271 75.2302 121.067 33.4682 132.37C25.2891 134.585 10.5361 134.725 4.40807 134.687C3.60092 134.676 2.81204 134.927 2.15971 135.402C1.50738 135.877 1.02675 136.551 0.789891 137.322C0.45883 138.3 0.45883 139.36 0.789891 140.339C2.83783 145.94 6.1991 150.97 10.5923 155.008C14.9855 159.045 20.2828 161.972 26.0407 163.544C47.0873 169.539 86.8873 155.181 109.679 131.123C125.655 114.244 125.362 99.4272 123.757 92.0825Z" fill="#5FBE00"/>
<path d="M123.757 92.0825C123.577 91.2864 123.161 90.5631 122.563 90.0068C121.966 89.4505 121.214 89.087 120.406 88.9639C118.712 88.6584 117.311 89.7658 115.909 90.5168C107.271 95.1247 100.112 101.871 91.8687 107.065C78.1911 115.898 63.4868 123.032 48.0811 128.31C38.8318 131.466 29.4296 134.521 19.5688 134.827C14.6893 135.158 9.80986 135.272 4.91767 135.26C4.21825 135.167 3.50737 135.299 2.88864 135.638C2.26991 135.977 1.77564 136.504 1.47785 137.144C1.23364 137.837 1.14249 138.575 1.21066 139.306C1.27883 140.038 1.50472 140.746 1.8728 141.382C2.47462 142.861 3.18137 144.294 3.98765 145.672C8.80745 154.092 16.7385 160.289 26.0789 162.933C60.2988 172.034 132.624 132.752 123.757 92.0825ZM123.757 92.0825C132.79 132.625 60.337 173.332 25.7477 164.066C20.9566 162.741 16.4741 160.484 12.5566 157.427C8.63915 154.369 5.36362 150.569 2.91748 146.245C1.50333 143.317 -0.904541 139.969 0.369466 136.634C2.01294 132.93 6.5484 134.343 9.74616 134.089C12.9821 134.089 16.2309 133.949 19.4541 133.745C29.2512 133.503 38.5642 130.626 47.8008 127.597C63.2473 122.535 78.0132 115.596 91.7668 106.937C100.035 101.757 107.233 95.0484 115.858 90.4786C117.272 89.7276 118.699 88.6202 120.381 88.9511C121.191 89.0735 121.945 89.4382 122.543 89.9973C123.141 90.5563 123.555 91.2833 123.732 92.0825H123.757Z" fill="#93DC33"/>
<path d="M41.6855 148.689C41.6855 148.88 41.6091 149.071 41.5581 149.262C40.7384 152.423 38.7989 155.18 36.0994 157.021C33.3999 158.863 30.1236 159.663 26.8783 159.275C23.633 158.886 20.6389 157.335 18.4513 154.908C16.2638 152.482 15.0312 149.345 14.9823 146.079C14.193 149.545 14.804 153.182 16.6827 156.2C18.5613 159.218 21.5559 161.373 25.0159 162.198C28.4759 163.023 32.1219 162.45 35.162 160.605C38.2021 158.76 40.3906 155.79 41.2524 152.342C41.5587 151.149 41.7044 149.92 41.6855 148.689Z" fill="#9FD866"/>
<path d="M25.0597 158.91C26.7814 159.369 28.5768 159.483 30.3426 159.245C32.1084 159.008 33.8099 158.424 35.3491 157.527C36.8883 156.631 38.2348 155.439 39.3114 154.02C40.3879 152.602 41.1731 150.985 41.6218 149.262C41.6218 149.071 41.6983 148.88 41.7492 148.689C41.7539 145.383 40.5451 142.191 38.3518 139.716C36.1586 137.242 33.1332 135.657 29.8486 135.261C26.5641 134.866 23.2484 135.688 20.5298 137.571C17.8111 139.455 15.8781 142.269 15.097 145.481C15.097 145.672 15.0206 145.876 14.9823 146.067C15.0299 149.013 16.0404 151.863 17.8598 154.181C19.6792 156.5 22.2077 158.161 25.0597 158.91Z" fill="#BEEA85"/>
<path d="M57.5469 156.988C65.0123 156.988 71.0642 150.942 71.0642 143.483C71.0642 136.024 65.0123 129.977 57.5469 129.977C50.0816 129.977 44.0297 136.024 44.0297 143.483C44.0297 150.942 50.0816 156.988 57.5469 156.988Z" fill="#BEEA85"/>
<path d="M84.7852 145.418C92.2506 145.418 98.3025 139.371 98.3025 131.912C98.3025 124.453 92.2506 118.406 84.7852 118.406C77.3199 118.406 71.268 124.453 71.268 131.912C71.268 139.371 77.3199 145.418 84.7852 145.418Z" fill="#BEEA85"/>
<path d="M110.495 128.628C117.96 128.628 124.012 122.581 124.012 115.122C124.012 107.663 117.96 101.617 110.495 101.617C103.029 101.617 96.9775 107.663 96.9775 115.122C96.9775 122.581 103.029 128.628 110.495 128.628Z" fill="#BEEA85"/>
<path d="M115.947 66.3951C115.947 66.3951 124.649 79.2897 118.304 93.2918" stroke="#93DC33" stroke-width="3" stroke-miterlimit="10" stroke-linecap="round"/>
<path d="M71.0259 143.355C71.0259 143.546 70.9622 143.737 70.9113 143.941C70.0816 147.096 68.1373 149.844 65.4376 151.678C62.7378 153.511 59.465 154.307 56.2238 153.918C52.9826 153.528 49.992 151.98 47.8044 149.559C45.6168 147.138 44.3801 144.007 44.3227 140.746C43.6213 144.18 44.2838 147.753 46.1701 150.708C48.0564 153.663 51.0188 155.77 54.4313 156.583C57.8438 157.396 61.439 156.852 64.4572 155.065C67.4754 153.279 69.6801 150.39 70.6055 147.009C70.9141 145.816 71.0556 144.587 71.0259 143.355Z" fill="#9FD866"/>
<path d="M54.4001 153.577C56.1209 154.032 57.9146 154.144 59.6786 153.906C61.4426 153.668 63.1423 153.084 64.6805 152.189C66.2188 151.294 67.5653 150.105 68.6432 148.69C69.7211 147.275 70.5091 145.661 70.9622 143.941C70.9622 143.737 71.0387 143.546 71.0769 143.355C71.0199 140.097 69.7847 136.97 67.5995 134.551C65.4142 132.132 62.4266 130.585 59.1886 130.195C55.9505 129.806 52.6807 130.6 49.9833 132.432C47.2859 134.264 45.3431 137.009 44.5138 140.16C44.5138 140.364 44.4374 140.555 44.3864 140.746C44.4329 143.681 45.4355 146.522 47.2424 148.837C49.0493 151.152 51.562 152.816 54.4001 153.577Z" fill="#BEEA85"/>
<path d="M98.3025 131.683C98.3025 131.874 98.226 132.065 98.1751 132.256C97.3553 135.417 95.4158 138.174 92.7163 140.015C90.0168 141.856 86.7406 142.657 83.4953 142.268C80.2499 141.88 77.2558 140.328 75.0683 137.902C72.8807 135.476 71.6481 132.339 71.5992 129.073C70.8826 132.514 71.5375 136.097 73.4246 139.063C75.3118 142.028 78.2822 144.141 81.7043 144.951C85.1263 145.762 88.73 145.207 91.7488 143.404C94.7676 141.602 96.9635 138.693 97.8693 135.298C98.1723 134.117 98.3179 132.902 98.3025 131.683Z" fill="#9FD866"/>
<path d="M81.6767 141.904C83.3983 142.363 85.1937 142.476 86.9595 142.239C88.7253 142.002 90.4268 141.418 91.966 140.521C93.5052 139.625 94.8518 138.433 95.9283 137.014C97.0048 135.596 97.79 133.978 98.2388 132.256C98.2388 132.065 98.3152 131.874 98.3662 131.683C98.3088 128.422 97.0721 125.291 94.8845 122.87C92.6969 120.449 89.7063 118.901 86.4651 118.511C83.2239 118.122 79.9511 118.917 77.2513 120.751C74.5516 122.585 72.6073 125.333 71.7776 128.488C71.7776 128.679 71.7012 128.882 71.663 129.073C71.7053 132.01 72.7063 134.852 74.5138 137.169C76.3213 139.485 78.8365 141.147 81.6767 141.904Z" fill="#BEEA85"/>
<path d="M123.999 114.931C123.999 115.122 123.923 115.313 123.872 115.504C123.052 118.665 121.113 121.422 118.413 123.264C115.714 125.105 112.437 125.906 109.192 125.517C105.947 125.128 102.953 123.577 100.765 121.15C98.5774 118.724 97.3449 115.587 97.296 112.322C96.5067 115.787 97.1177 119.424 98.9964 122.442C100.875 125.46 103.87 127.615 107.33 128.44C110.79 129.265 114.436 128.693 117.476 126.847C120.516 125.002 122.704 122.033 123.566 118.585C123.872 117.391 124.018 116.163 123.999 114.931Z" fill="#9FD866"/>
<path d="M107.373 125.115C109.095 125.573 110.89 125.687 112.656 125.449C114.422 125.212 116.124 124.628 117.663 123.732C119.202 122.835 120.548 121.643 121.625 120.224C122.702 118.806 123.487 117.189 123.935 115.466C123.935 115.275 124.012 115.084 124.063 114.893C124.006 111.632 122.769 108.501 120.581 106.08C118.394 103.659 115.403 102.111 112.162 101.721C108.921 101.332 105.648 102.128 102.948 103.961C100.248 105.795 98.304 108.543 97.4743 111.698C97.4743 111.889 97.3979 112.093 97.3597 112.284C97.4061 115.219 98.4087 118.06 100.216 120.375C102.022 122.69 104.535 124.354 107.373 125.115Z" fill="#BEEA85"/>
<path d="M123.923 88.2001C123.506 87.7452 122.99 87.3919 122.415 87.1673C121.84 86.9427 121.221 86.8527 120.606 86.9044C119.991 86.956 119.396 87.1478 118.867 87.4651C118.337 87.7824 117.888 88.2167 117.553 88.7347C114.679 93.184 112.153 97.8482 109.998 102.686C106.596 110.769 95.7927 137.233 64.898 167.503C58.8464 173.434 46.0427 180.779 40.6918 183.732C39.9922 184.127 39.4347 184.731 39.0985 185.46C38.7623 186.189 38.6645 187.005 38.819 187.793C39.0339 188.808 39.5699 189.727 40.3478 190.415C44.8701 194.296 50.2567 197.039 56.0571 198.414C61.8576 199.789 67.9033 199.757 73.6886 198.32C94.99 193.228 122.674 161.278 130.764 129.162C136.446 106.632 128.917 93.8518 123.923 88.2001Z" fill="#93DC33"/>
<path d="M123.923 88.2001C123.376 87.5952 122.658 87.1695 121.865 86.9787C121.072 86.7879 120.239 86.841 119.476 87.1309C117.858 87.6782 117.171 89.333 116.317 90.6696C111.043 98.918 108.1 108.299 103.462 116.879C95.8472 131.26 86.5126 144.664 75.6633 156.797C69.1404 164.066 62.4391 171.321 54.0052 176.426C51.2703 178.191 48.493 179.888 45.6732 181.517C44.2718 182.332 42.8576 183.134 41.4307 183.936C40.7763 184.206 40.2267 184.681 39.864 185.289C39.5013 185.897 39.3448 186.605 39.4178 187.309C39.545 188.029 39.8259 188.713 40.2414 189.315C40.6569 189.917 41.1972 190.422 41.8257 190.797C43.0784 191.794 44.3979 192.704 45.7751 193.521C54.1054 198.501 64.0556 200.027 73.4975 197.772C107.73 188.989 151.531 119.323 123.923 88.2001ZM123.923 88.2001C151.658 119.157 108.393 190.033 73.7014 198.943C68.878 200.138 63.8658 200.369 58.953 199.622C54.0402 198.874 49.3236 197.165 45.0744 194.59C42.4117 192.732 38.6152 191.026 38.1693 187.436C37.8126 183.414 42.4499 182.421 45.0999 180.614C47.7498 178.806 50.68 177.317 53.3937 175.522C61.8149 170.532 68.5289 163.467 75.0518 156.301C86.03 144.349 95.4987 131.097 103.246 116.841C107.921 108.287 110.89 98.9053 116.228 90.6823C117.094 89.4094 117.795 87.6909 119.413 87.1436C120.18 86.8574 121.016 86.8088 121.811 87.0041C122.607 87.1993 123.325 87.6294 123.872 88.2383L123.923 88.2001Z" fill="#5FBE00"/>
<path d="M27.144 133.544L25.1829 133.775C23.8692 133.931 22.9302 135.12 23.0854 136.433L23.1677 137.128C23.3229 138.441 24.5137 139.379 25.8273 139.224L27.7884 138.992C29.1021 138.837 30.0411 137.647 29.8859 136.335L29.8037 135.64C29.6484 134.327 28.4576 133.389 27.144 133.544Z" fill="#F4F6B9"/>
<path d="M52.4033 126.421L50.5457 127.09C49.3013 127.538 48.6563 128.91 49.1051 130.153L49.3428 130.812C49.7915 132.055 51.164 132.699 52.4084 132.251L54.266 131.582C55.5104 131.133 56.1554 129.762 55.7066 128.519L55.4689 127.86C55.0202 126.617 53.6477 125.972 52.4033 126.421Z" fill="#F4F6B9"/>
<path d="M77.84 115.209L76.0867 116.117C74.9121 116.725 74.4533 118.169 75.0619 119.343L75.3842 119.964C75.9928 121.138 77.4382 121.596 78.6127 120.988L80.3661 120.08C81.5406 119.472 81.9994 118.028 81.3909 116.855L81.0685 116.233C80.4599 115.06 79.0145 114.601 77.84 115.209Z" fill="#F4F6B9"/>
<path d="M100.945 100.664L99.3446 101.82C98.2725 102.594 98.0316 104.09 98.8065 105.161L99.217 105.729C99.9919 106.8 101.489 107.041 102.561 106.266L104.162 105.111C105.234 104.336 105.475 102.84 104.7 101.769L104.289 101.202C103.514 100.131 102.017 99.89 100.945 100.664Z" fill="#F4F6B9"/>
<path d="M27.5823 0H37.7743V36.0107C40.999 32.9114 45.2885 31.1625 49.7627 31.1227C51.9852 31.0268 54.2023 31.4091 56.264 32.2436C58.3257 33.0781 60.184 34.3454 61.7129 35.9598C64.261 38.7687 65.535 43.2451 65.535 49.389V76.3747H55.3429V50.3182C55.3429 46.788 54.7144 44.2422 53.4574 42.6808C52.1834 41.1023 50.1959 40.3004 47.4186 40.3004C43.8641 40.3004 41.3543 41.4078 39.9147 43.61C38.475 45.8121 37.7616 49.6309 37.7616 55.1044V76.3493H27.5695L27.5823 0Z" fill="black"/>
<path d="M76.364 54.0224C76.3088 50.9959 76.8826 47.9909 78.0493 45.1973C79.2159 42.4038 80.9499 39.8825 83.1418 37.7928C87.6279 33.4796 93.6118 31.0701 99.8376 31.0701C106.064 31.0701 112.047 33.4796 116.534 37.7928C118.742 39.9372 120.485 42.5133 121.653 45.3603C122.821 48.2074 123.39 51.2643 123.324 54.3406C123.39 57.4215 122.816 60.4825 121.638 63.3306C120.461 66.1788 118.705 68.7522 116.483 70.8885C114.257 73.0643 111.618 74.7731 108.721 75.9142C105.824 77.0554 102.728 77.6058 99.6147 77.5331C96.5357 77.5992 93.4761 77.031 90.6266 75.8637C87.7772 74.6964 85.1989 72.9551 83.0526 70.7485C80.8598 68.5601 79.1359 65.9486 77.986 63.073C76.8361 60.1974 76.2843 57.118 76.364 54.0224ZM86.7727 54.2006C86.5662 58.005 87.8243 61.7441 90.289 64.6512C91.5185 65.9296 93.0067 66.9315 94.6544 67.59C96.302 68.2485 98.0712 68.5485 99.844 68.47C101.615 68.5508 103.383 68.2518 105.029 67.5931C106.675 66.9344 108.161 65.9313 109.386 64.6512C111.868 61.8256 113.152 58.1462 112.966 54.3916C113.152 50.6369 111.868 46.9575 109.386 44.1319C106.856 41.6358 103.444 40.2361 99.8886 40.2361C96.3331 40.2361 92.9208 41.6358 90.3909 44.1319C87.8885 46.8744 86.57 50.4926 86.7217 54.2006H86.7727Z" fill="black"/>
<path d="M137.848 32.3192L149.314 57.4593L161.761 28.2968L174.297 57.4593L185.763 32.3192H197.165L174.08 79.6589L161.824 51.2856L149.428 79.6334L126.394 32.3192H137.848Z" fill="black"/>
<path d="M245.896 56.7337H214.314C214.409 59.9417 215.663 63.0068 217.843 65.3641C218.885 66.415 220.134 67.2392 221.511 67.7846C222.888 68.3301 224.363 68.5851 225.843 68.5336C228.081 68.6242 230.289 67.9903 232.137 66.7261C234.361 64.8277 236.244 62.5632 237.704 60.0306L246.304 64.8294C245.107 66.9075 243.694 68.8531 242.087 70.6339C240.697 72.177 239.097 73.5181 237.335 74.6181C235.643 75.6568 233.799 76.4255 231.869 76.8966C229.783 77.3942 227.644 77.6378 225.499 77.6222C218.926 77.6222 213.647 75.5007 209.663 71.2576C205.68 67.0146 203.688 61.3756 203.688 54.3406C203.688 47.382 205.621 41.7473 209.485 37.4364C211.448 35.3196 213.848 33.6541 216.518 32.5552C219.189 31.4563 222.066 30.9501 224.952 31.0718C231.432 31.0718 236.562 33.1382 240.342 37.2709C244.121 41.4036 245.99 47.085 245.947 54.3152L245.896 56.7337ZM235.437 48.4216C234.018 42.999 230.595 40.2834 225.168 40.275C223.985 40.2662 222.808 40.4599 221.69 40.8478C220.612 41.2117 219.607 41.7633 218.722 42.4771C217.82 43.1879 217.049 44.0492 216.441 45.0229C215.78 46.0719 215.29 47.219 214.989 48.4216H235.437Z" fill="#5FBE00"/>
<path d="M289.506 32.3193H299.698V76.3493H289.506V71.7413C285.31 75.6619 280.8 77.6222 275.976 77.6222C273.127 77.6915 270.298 77.1358 267.687 75.9944C265.076 74.853 262.748 73.1535 260.866 71.0158C256.85 66.3514 254.736 60.3496 254.942 54.2006C254.732 48.1316 256.851 42.2117 260.866 37.6528C262.702 35.5296 264.984 33.8368 267.549 32.695C270.115 31.5531 272.9 30.9902 275.708 31.0463C278.326 31.0833 280.906 31.6689 283.283 32.7653C285.66 33.8616 287.78 35.4443 289.506 37.4109V32.3193ZM265.299 54.2006C265.136 57.9349 266.341 61.6006 268.688 64.5112C269.754 65.7992 271.096 66.83 272.616 67.5265C274.136 68.223 275.794 68.5673 277.466 68.5336C279.177 68.6027 280.883 68.2966 282.463 67.6369C284.044 66.9772 285.46 65.9798 286.614 64.7149C288.985 61.8624 290.223 58.2376 290.092 54.5316C290.223 50.8255 288.985 47.2007 286.614 44.3483C285.513 43.0525 284.139 42.0156 282.591 41.3114C281.043 40.6073 279.358 40.2534 277.657 40.2749C275.991 40.2502 274.339 40.5947 272.821 41.2836C271.303 41.9725 269.957 42.9887 268.879 44.2592C266.511 47.0215 265.253 50.5644 265.35 54.2006H265.299Z" fill="#5FBE00"/>
<path d="M323.076 41.8152V76.3493H312.884V41.8152H308.539V32.3193H312.884V16.1787H323.076V32.3193H331V41.8152H323.076Z" fill="#5FBE00"/>
<path d="M215.664 96.2322H209.179V153.424H215.664V96.2322Z" fill="white"/>
<path d="M193.853 120.838C192.238 119.032 190.244 117.605 188.013 116.659C185.782 115.713 183.369 115.271 180.947 115.364C178.177 115.324 175.451 116.056 173.074 117.477C170.662 118.985 168.699 121.113 167.392 123.638V116.701H161.353V169.45H167.647V147.06C168.885 149.609 170.808 151.764 173.201 153.284C175.614 154.719 178.383 155.443 181.189 155.372C183.582 155.47 185.966 155.036 188.169 154.101C190.373 153.165 192.34 151.751 193.929 149.962C197.089 146.364 198.669 141.476 198.669 135.298C198.669 129.12 197.064 124.3 193.853 120.838ZM188.757 145.685C187.634 146.853 186.272 147.766 184.764 148.361C183.255 148.957 181.637 149.22 180.017 149.134C178.309 149.196 176.608 148.886 175.031 148.227C173.454 147.567 172.038 146.574 170.883 145.316C168.496 142.539 167.265 138.954 167.443 135.298C167.443 130.983 168.551 127.584 170.768 125.115C171.928 123.873 173.345 122.899 174.92 122.261C176.496 121.623 178.192 121.337 179.89 121.423C181.578 121.331 183.263 121.635 184.812 122.312C186.361 122.988 187.729 124.018 188.808 125.318C190.931 127.915 191.993 131.496 191.993 136.062C191.98 140.199 190.923 143.394 188.795 145.685H188.757Z" fill="white"/>
</g>
<defs>
<clipPath id="clip0_1_130">
<rect width="331" height="200" fill="white"/>
</clipPath>
</defs>
</svg>
