<svg width="50" height="50" viewBox="0 0 50 50" fill="none" xmlns="http://www.w3.org/2000/svg">
<path d="M34.9008 4.45557H15.0988C14.508 4.45557 13.9414 4.69027 13.5236 5.10805C13.1058 5.52583 12.8711 6.09246 12.8711 6.68329V44.307C12.8711 44.8979 13.1058 45.4645 13.5236 45.8823C13.9414 46.3001 14.508 46.5348 15.0988 46.5348H34.9008C35.4916 46.5348 36.0583 46.3001 36.476 45.8823C36.8938 45.4645 37.1285 44.8979 37.1285 44.307V6.68329C37.1285 6.09246 36.8938 5.52583 36.476 5.10805C36.0583 4.69027 35.4916 4.45557 34.9008 4.45557ZM14.3562 10.8912H35.6434V37.6239H14.3562V10.8912ZM15.0988 5.94071H34.9008C35.0977 5.94071 35.2866 6.01895 35.4259 6.15821C35.5651 6.29747 35.6434 6.48635 35.6434 6.68329V9.40606H14.3562V6.68329C14.3562 6.48635 14.4345 6.29747 14.5737 6.15821C14.713 6.01895 14.9019 5.94071 15.0988 5.94071ZM34.9008 45.0496H15.0988C14.9019 45.0496 14.713 44.9714 14.5737 44.8321C14.4345 44.6929 14.3562 44.504 14.3562 44.307V39.109H35.6434V44.307C35.6434 44.504 35.5651 44.6929 35.4259 44.8321C35.2866 44.9714 35.0977 45.0496 34.9008 45.0496Z" fill="white"/>
<path d="M24.9993 43.317C25.6829 43.317 26.237 42.7629 26.237 42.0794C26.237 41.3959 25.6829 40.8418 24.9993 40.8418C24.3158 40.8418 23.7617 41.3959 23.7617 42.0794C23.7617 42.7629 24.3158 43.317 24.9993 43.317Z" fill="white"/>
<path d="M33.4161 27.2279H32.1784C32.117 25.4876 31.4254 23.829 30.2325 22.5605C29.0396 21.292 27.4265 20.5 25.6933 20.3318C25.9128 20.1835 26.0789 19.9686 26.1671 19.7187C26.2554 19.4689 26.2612 19.1974 26.1836 18.944C26.106 18.6907 25.9492 18.469 25.7361 18.3114C25.5231 18.1539 25.2652 18.0688 25.0002 18.0688C24.7353 18.0688 24.4773 18.1539 24.2643 18.3114C24.0513 18.469 23.8944 18.6907 23.8168 18.944C23.7393 19.1974 23.745 19.4689 23.8333 19.7187C23.9215 19.9686 24.0876 20.1835 24.3071 20.3318C22.574 20.5 20.9608 21.292 19.7679 22.5605C18.575 23.829 17.8835 25.4876 17.822 27.2279H16.5844C16.3874 27.2279 16.1986 27.3061 16.0593 27.4454C15.92 27.5846 15.8418 27.7735 15.8418 27.9704C15.8418 28.1674 15.92 28.3563 16.0593 28.4955C16.1986 28.6348 16.3874 28.713 16.5844 28.713H33.4161C33.613 28.713 33.8019 28.6348 33.9411 28.4955C34.0804 28.3563 34.1586 28.1674 34.1586 27.9704C34.1586 27.7735 34.0804 27.5846 33.9411 27.4454C33.8019 27.3061 33.613 27.2279 33.4161 27.2279ZM25.0002 21.7823C26.4682 21.7809 27.88 22.3466 28.9408 23.3613C30.0016 24.376 30.6295 25.7613 30.6933 27.2279H19.3071C19.371 25.7613 19.9988 24.376 21.0597 23.3613C22.1205 22.3466 23.5322 21.7809 25.0002 21.7823Z" fill="white"/>
</svg>
