<?xml version="1.0" standalone="no"?>
<!DOCTYPE svg PUBLIC "-//W3C//DTD SVG 20010904//EN"
 "http://www.w3.org/TR/2001/REC-SVG-20010904/DTD/svg10.dtd">
<svg version="1.0" xmlns="http://www.w3.org/2000/svg"
 width="840.000000pt" height="840.000000pt" viewBox="0 0 840.000000 840.000000"
 preserveAspectRatio="xMidYMid meet">
<metadata>
Created by potrace 1.14, written by Peter Selinger 2001-2017
</metadata>
<g transform="translate(0.000000,840.000000) scale(0.100000,-0.100000)"
fill="#000000" stroke="none">
<path d="M7142 8340 c-62 -38 -73 -111 -28 -180 26 -40 108 -206 106 -215 0
-3 6 -18 14 -33 18 -33 77 -202 71 -202 -2 0 0 -12 6 -27 12 -32 34 -133 46
-213 9 -63 9 -373 0 -440 -20 -141 -61 -251 -87 -235 -4 3 -13 -2 -20 -10 -7
-8 -16 -12 -21 -9 -5 3 -9 2 -9 -3 0 -4 -26 -21 -58 -38 -31 -16 -58 -33 -60
-37 -2 -5 -8 -8 -13 -8 -6 0 -35 -16 -65 -35 -30 -19 -58 -35 -63 -35 -5 0
-11 -3 -13 -7 -4 -11 -116 -83 -127 -83 -5 0 -11 -3 -13 -7 -3 -8 -22 -22
-128 -93 -36 -25 -67 -47 -70 -50 -3 -3 -34 -26 -70 -52 -36 -26 -74 -54 -85
-62 -11 -9 -54 -41 -95 -71 -41 -31 -82 -61 -90 -68 -15 -13 -217 -160 -255
-187 -200 -139 -385 -257 -605 -387 -41 -25 -306 -176 -360 -206 -175 -96
-498 -261 -518 -264 -8 -1 -22 -9 -31 -17 -10 -9 -21 -16 -25 -16 -4 0 -55
-22 -113 -50 -58 -27 -107 -50 -109 -50 -2 0 -36 -15 -76 -34 -85 -40 -292
-127 -428 -181 -52 -20 -108 -43 -125 -50 -41 -18 -288 -109 -350 -129 -27 -9
-59 -20 -70 -25 -25 -11 -188 -65 -275 -92 -36 -11 -72 -23 -80 -26 -8 -3 -19
-7 -25 -9 -5 -1 -60 -18 -121 -37 -101 -32 -307 -94 -344 -103 -8 -2 -33 -8
-55 -14 -22 -6 -47 -12 -55 -15 -64 -16 -212 -50 -270 -61 -14 -2 -36 -7 -50
-10 -14 -3 -36 -8 -50 -10 -14 -2 -34 -6 -46 -9 -27 -6 -115 -19 -209 -30 -27
-3 -65 -8 -83 -11 -19 -2 -80 -7 -135 -10 -210 -11 -255 -13 -382 -20 -71 -3
-265 -7 -430 -9 -165 -1 -307 -4 -315 -7 -85 -22 -162 -94 -186 -173 -18 -62
-11 -177 16 -255 60 -177 257 -510 397 -672 45 -51 223 -230 274 -274 77 -67
225 -171 339 -238 92 -53 340 -170 340 -159 0 3 6 1 13 -5 9 -8 96 -37 140
-48 4 -1 9 -3 12 -4 3 -1 8 -3 13 -4 4 -1 16 -5 27 -9 11 -3 31 -9 45 -11 106
-23 129 -27 160 -32 19 -3 51 -7 70 -10 192 -30 543 -34 770 -9 19 2 55 6 80
9 95 10 152 18 225 31 17 3 55 10 85 15 30 6 64 12 75 14 11 3 63 14 115 25
52 11 110 25 128 30 17 5 32 8 32 6 0 -3 12 0 28 6 15 6 36 13 48 15 11 2 68
18 125 35 57 17 109 32 114 33 21 5 234 76 315 106 47 17 108 40 135 50 28 10
68 26 90 36 22 10 45 19 50 20 19 4 255 108 298 130 15 9 27 12 27 9 0 -4 7 1
16 9 8 9 23 16 31 16 11 0 3 -14 -24 -42 -101 -106 -123 -129 -123 -132 0 -11
-386 -406 -516 -527 -80 -75 -219 -194 -276 -238 -27 -19 -48 -39 -48 -43 0
-4 -4 -8 -10 -8 -9 0 -35 -19 -65 -47 -8 -7 -18 -13 -24 -13 -6 0 -11 -4 -11
-10 0 -5 -7 -10 -15 -10 -7 0 -18 -6 -22 -13 -4 -8 -29 -26 -55 -41 -25 -15
-52 -33 -58 -41 -7 -8 -16 -12 -21 -9 -5 3 -9 1 -9 -4 0 -5 -20 -20 -45 -33
-25 -13 -45 -27 -45 -31 0 -5 -5 -8 -10 -8 -6 0 -34 -16 -63 -35 -28 -19 -57
-35 -64 -35 -6 0 -13 -4 -15 -8 -3 -7 -77 -54 -118 -75 -8 -4 -28 -16 -45 -27
-16 -11 -42 -26 -57 -32 -16 -7 -28 -16 -28 -20 0 -4 -7 -8 -15 -8 -8 0 -15
-4 -15 -10 0 -5 -4 -10 -9 -10 -5 0 -35 -17 -67 -39 -33 -21 -93 -56 -134 -76
-162 -82 -247 -153 -279 -231 -43 -108 -1 -238 113 -346 85 -81 345 -248 501
-322 109 -52 314 -129 375 -141 3 -1 14 -4 25 -8 11 -3 34 -9 50 -12 32 -7 57
-12 65 -15 3 -1 9 -2 13 -1 5 1 25 -3 45 -8 95 -25 213 -34 422 -35 204 -1
301 8 455 40 39 8 81 17 95 20 14 3 34 8 45 11 11 4 22 8 25 8 58 14 288 101
307 117 7 6 13 8 13 4 0 -14 367 186 382 208 4 6 8 8 8 4 0 -4 30 14 68 39
152 104 188 129 206 145 11 10 38 30 60 45 23 15 43 30 46 33 3 3 41 35 85 70
44 36 87 72 96 80 8 8 51 47 94 85 97 86 336 325 430 429 39 42 79 87 90 99
35 39 139 162 170 201 17 21 35 44 40 50 9 9 32 39 88 111 4 6 34 45 67 87 33
43 60 82 60 88 0 5 3 10 8 10 4 0 18 17 32 38 14 20 27 39 30 42 11 11 50 70
50 75 0 3 13 23 29 43 45 56 271 414 271 429 0 7 4 13 10 13 5 0 12 11 16 25
3 14 10 25 14 25 4 0 10 8 13 18 3 9 24 49 46 87 59 101 279 545 287 578 3 15
10 27 15 27 5 0 9 4 9 9 0 5 5 22 11 38 6 15 9 28 8 28 -2 0 5 14 14 30 9 17
34 75 55 130 22 55 43 109 47 120 4 11 10 28 12 38 1 10 10 31 18 47 8 16 17
37 18 47 2 10 7 25 10 33 3 8 15 47 27 85 12 39 29 89 37 113 8 23 16 50 18
60 2 9 4 17 5 17 1 0 3 7 5 15 1 8 8 35 16 60 7 25 14 54 16 64 2 10 12 53 22
95 19 74 40 174 46 215 2 12 8 46 14 76 6 30 13 80 17 110 3 30 7 69 9 85 13
101 18 176 19 297 0 76 5 138 9 138 5 0 5 4 2 10 -3 5 -8 47 -10 92 -8 137
-18 249 -30 304 -3 12 -7 39 -10 60 -4 21 -8 47 -11 56 -3 10 -7 30 -10 45
-16 94 -92 331 -128 401 -9 17 -16 34 -16 37 1 11 -65 142 -102 204 -21 34
-38 67 -38 72 0 5 -4 9 -10 9 -5 0 -10 4 -10 10 0 5 -10 24 -23 42 -100 146
-203 256 -249 265 l-30 6 8 56 c10 68 10 397 1 466 -13 94 -16 110 -26 154 -5
25 -8 49 -5 53 3 4 0 8 -7 8 -7 0 -10 2 -7 5 3 3 -6 43 -19 88 -13 45 -26 87
-27 92 -3 10 -8 24 -23 63 -3 9 -7 19 -8 22 -2 7 -24 62 -32 80 -3 8 -7 17 -8
20 -11 32 -39 86 -47 91 -5 3 -9 9 -8 13 3 8 -31 78 -41 86 -3 3 -14 20 -23
37 -33 66 -114 90 -174 53z"/>
</g>
</svg>
