<svg width="62" height="63" viewBox="0 0 62 63" fill="none" xmlns="http://www.w3.org/2000/svg">
<path d="M49.2899 62H12.3211C8.05455 62 4.51602 58.7307 4.20832 54.5081L1 10.5324C1 5.26724 5.30027 1 10.6062 1H51.0048C56.3107 1 60.611 5.26724 60.611 10.5324L57.4064 54.5081C57.0987 58.7307 53.5564 62 49.2899 62Z" stroke="#2796E7" stroke-width="2" stroke-miterlimit="10"/>
<path d="M43.8198 20.1838H17.793V16.2479C17.793 9.11722 23.6205 3.33447 30.8064 3.33447C37.9923 3.33447 43.8198 9.11722 43.8198 16.2479V20.1838V20.1838Z" stroke="#2796E7" stroke-width="2" stroke-miterlimit="10"/>
<path d="M30.375 12.6846V20.1839" stroke="#2796E7" stroke-width="2" stroke-miterlimit="10" stroke-linecap="round"/>
<path d="M30.375 61.7537V37.4014" stroke="#2796E7" stroke-width="2" stroke-miterlimit="10" stroke-linecap="round"/>
<path d="M20.0664 8.99512L23.4323 10.9612" stroke="#2796E7" stroke-width="2" stroke-miterlimit="10" stroke-linecap="round"/>
<path d="M41.8762 9.64648L38.0938 10.6183" stroke="#2796E7" stroke-width="2" stroke-miterlimit="10" stroke-linecap="round"/>
<path d="M30.375 3.50586V6.45867" stroke="#2796E7" stroke-width="2" stroke-miterlimit="10" stroke-linecap="round"/>
</svg>
