<svg width="35" height="40" viewBox="0 0 35 40" fill="none" xmlns="http://www.w3.org/2000/svg">
<path d="M33.5093 16.664H32.9914L29.3752 6.6582L31.4575 6.04541C31.8211 5.9396 32.1319 5.67827 32.3214 5.31889C32.5109 4.95952 32.5636 4.53154 32.468 4.12912C32.3724 3.7267 32.1363 3.38279 31.8116 3.17306C31.4868 2.96332 31.1001 2.90493 30.7365 3.01074L19.7942 6.19838C19.4143 5.73198 18.9258 5.39031 18.3821 5.21081C17.8384 5.03131 17.2605 5.02091 16.7118 5.18075C16.1631 5.34059 15.6648 5.66451 15.2714 6.11699C14.8781 6.56948 14.6048 7.13307 14.4817 7.74602L3.47102 10.9547C3.13875 11.0518 2.84974 11.2794 2.65788 11.5949C2.46601 11.9104 2.38439 12.2924 2.42822 12.6697C2.47205 13.0469 2.63835 13.3936 2.89611 13.6451C3.15386 13.8967 3.48549 14.0359 3.82915 14.0369C3.95161 14.0368 4.07354 14.0192 4.19193 13.9846L5.35938 13.6566L2.00922 22.8675H1.49023C1.34001 22.8664 1.19107 22.8981 1.05195 22.9609C0.912835 23.0236 0.786289 23.1161 0.679579 23.2332C0.572869 23.3502 0.488096 23.4894 0.43013 23.6428C0.372163 23.7961 0.342144 23.9607 0.341797 24.1269C0.34212 24.3779 0.410077 24.6231 0.536976 24.8311C0.663876 25.0391 0.84395 25.2004 1.05417 25.2946C1.13025 26.9273 1.7284 28.3003 2.79665 29.2842C3.83831 30.2437 5.29273 30.7713 6.89192 30.7713C8.48818 30.7713 9.9493 30.237 11.0061 29.2674C12.0857 28.2768 12.6906 26.9076 12.7684 25.292C12.9093 25.2279 13.0374 25.1334 13.145 25.014C13.2518 24.8984 13.3367 24.7604 13.3945 24.6079C13.4523 24.4554 13.4818 24.2917 13.4814 24.1263C13.4809 23.9601 13.4508 23.7956 13.3928 23.6423C13.3348 23.489 13.25 23.3498 13.1432 23.2329C13.0365 23.1159 12.9099 23.0234 12.7708 22.9607C12.6317 22.898 12.4828 22.8664 12.3326 22.8675H11.8143L8.1872 12.8325L15.1998 10.7827C15.4545 11.0962 15.7592 11.355 16.0986 11.5462L16.0699 30.5841H13.9569C13.3025 30.5824 12.6714 30.8533 12.1893 31.3431C11.7072 31.8328 11.4094 32.5055 11.355 33.2273C10.8218 33.4062 10.3544 33.7694 10.0212 34.2636C9.68799 34.7579 9.50658 35.3572 9.50353 35.9739C9.50337 36.0321 9.51389 36.0898 9.53444 36.1435C9.55499 36.1971 9.58514 36.2456 9.62309 36.286C9.66167 36.3269 9.70725 36.3589 9.75715 36.3801C9.80704 36.4013 9.86026 36.4113 9.91368 36.4094H25.0863C25.1399 36.411 25.1932 36.4006 25.2431 36.3788C25.293 36.3571 25.3385 36.3245 25.3767 36.2829C25.415 36.2414 25.4453 36.1917 25.4659 36.1369C25.4865 36.0821 25.4969 36.0233 25.4965 35.964C25.4935 35.3481 25.3121 34.7495 24.9788 34.2562C24.6455 33.763 24.178 33.4012 23.645 33.224C23.5904 32.5029 23.2926 31.8311 22.8108 31.3419C22.329 30.8528 21.6986 30.5823 21.0448 30.5841H18.9304L18.9308 11.5272C19.3309 11.2947 19.6804 10.9686 19.955 10.5714C20.2295 10.1742 20.4225 9.71549 20.5204 9.2273L26.5248 7.48963L23.1864 16.664H22.6669C22.4018 16.6616 22.1443 16.7616 21.9387 16.9468C21.7331 17.132 21.5924 17.3908 21.5408 17.6786C21.4891 17.9663 21.5298 18.265 21.6558 18.5231C21.7818 18.7812 21.9852 18.9825 22.2309 19.0925C22.3068 20.7256 22.905 22.0972 23.9735 23.0814C25.0152 24.0409 26.4696 24.5678 28.0687 24.5678C29.665 24.5678 31.1261 24.033 32.1829 23.0634C33.263 22.0723 33.8678 20.703 33.9453 19.0865C34.191 18.9772 34.3945 18.7763 34.5205 18.5186C34.6465 18.2608 34.6872 17.9625 34.6355 17.675C34.5837 17.3876 34.4429 17.1293 34.2372 16.9446C34.0316 16.76 33.7741 16.6607 33.5093 16.664V16.664ZM10.4825 28.5566C9.57257 29.3915 8.29746 29.8569 6.89192 29.8569C5.48406 29.8569 4.21606 29.3947 3.32145 28.5708C2.46613 27.7832 1.97436 26.7258 1.88269 25.3641H11.9396C11.8458 26.6502 11.3477 27.7631 10.4825 28.5566ZM12.3324 23.7754C12.3749 23.7741 12.4173 23.7822 12.457 23.7992C12.4967 23.8163 12.5329 23.8419 12.5635 23.8747C12.5941 23.9075 12.6185 23.9466 12.6352 23.99C12.652 24.0333 12.6607 24.0799 12.661 24.127C12.661 24.1722 12.6525 24.217 12.6359 24.2583C12.6193 24.2997 12.5951 24.3367 12.5647 24.367C12.5334 24.3985 12.4967 24.4226 12.4568 24.4379C12.4168 24.4533 12.3745 24.4595 12.3323 24.4562H1.49071C1.44817 24.4584 1.40567 24.4511 1.36574 24.4347C1.32581 24.4183 1.28927 24.3932 1.25829 24.3608C1.22797 24.3306 1.20373 24.2937 1.18716 24.2524C1.17059 24.2111 1.16205 24.1664 1.16211 24.1213C1.16248 24.0744 1.17135 24.0282 1.18819 23.9852C1.20504 23.9423 1.22952 23.9035 1.26018 23.8712C1.29083 23.839 1.32704 23.8139 1.36664 23.7974C1.40625 23.7809 1.44844 23.7734 1.49071 23.7754H12.3324ZM10.9307 22.8675H2.89365L6.3486 13.3683L7.38767 13.0716L10.9307 22.8675ZM3.9831 13.1066C3.83042 13.1511 3.66803 13.1267 3.53165 13.0387C3.39526 12.9507 3.29606 12.8063 3.25585 12.6373C3.21565 12.4684 3.23774 12.2886 3.31727 12.1377C3.3968 11.9868 3.52725 11.877 3.67992 11.8325L14.4136 8.70446C14.438 9.14705 14.5403 9.58009 14.715 9.97914L3.9831 13.1066ZM22.8851 33.9885C23.7276 33.9885 24.4368 34.6694 24.6266 35.5016H10.3737C10.4747 35.0731 10.6999 34.6931 11.0148 34.4198C11.3296 34.1465 11.7167 33.995 12.1168 33.9885H22.8851ZM21.0355 31.492H21.043C21.4579 31.488 21.861 31.6445 22.1826 31.9346C22.5043 32.2248 22.7242 32.6301 22.8043 33.0807H12.1961C12.2781 32.6293 12.4997 32.2236 12.8229 31.9336C13.1461 31.6436 13.5505 31.4875 13.9666 31.492H21.0355ZM16.8902 30.5841L16.9183 11.8557C17.3122 11.94 17.7173 11.9379 18.1105 11.8494V30.5841H16.8902ZM17.5 11.0064C17.0504 11.0065 16.611 10.859 16.2371 10.5826C15.8633 10.3063 15.572 9.91344 15.3999 9.45381C15.2278 8.99417 15.1827 8.48839 15.2704 8.00041C15.3581 7.51244 15.5745 7.0642 15.8924 6.71238C16.2103 6.36055 16.6153 6.12095 17.0562 6.02387C17.4971 5.92678 17.9541 5.97658 18.3695 6.16696C18.7848 6.35734 19.1398 6.67975 19.3896 7.09342C19.6394 7.5071 19.7727 7.99345 19.7727 8.49097C19.772 9.15784 19.5324 9.79719 19.1063 10.2688C18.6803 10.7403 18.1026 11.0056 17.5 11.0064V11.0064ZM20.5857 8.26825C20.5603 7.82574 20.4568 7.39302 20.2812 6.99448L30.9453 3.88673C31.0973 3.84422 31.2584 3.86985 31.3935 3.95805C31.5286 4.04626 31.6268 4.1899 31.6668 4.35776C31.7067 4.52563 31.6852 4.70416 31.6068 4.85456C31.5285 5.00495 31.3997 5.11506 31.2484 5.16095L20.5857 8.26825ZM27.5147 7.20048L28.5757 6.89719L32.1077 16.664H24.0708L27.5147 7.20048ZM31.6596 22.3531C30.7497 23.188 29.4745 23.6532 28.069 23.6532C26.6612 23.6532 25.3931 23.1913 24.4986 22.3671C23.6433 21.5794 23.1515 20.5223 23.0598 19.1605H33.1168C33.0229 20.4466 32.5248 21.5593 31.6596 22.3531ZM33.5093 18.2527H22.668C22.6259 18.2558 22.5836 18.2493 22.5438 18.2336C22.5041 18.2179 22.4677 18.1933 22.4368 18.1614C22.406 18.1295 22.3814 18.0909 22.3646 18.0481C22.3478 18.0052 22.3392 17.959 22.3392 17.9123C22.3392 17.8655 22.3478 17.8193 22.3646 17.7765C22.3814 17.7336 22.406 17.695 22.4368 17.6631C22.4677 17.6312 22.5041 17.6066 22.5438 17.5909C22.5836 17.5752 22.6259 17.5687 22.668 17.5718H33.5098C33.5519 17.5687 33.5941 17.5752 33.6339 17.5909C33.6737 17.6066 33.7101 17.6312 33.7409 17.6631C33.7717 17.695 33.7963 17.7336 33.8131 17.7765C33.8299 17.8193 33.8386 17.8655 33.8386 17.9123C33.8386 17.959 33.8299 18.0052 33.8131 18.0481C33.7963 18.0909 33.7717 18.1295 33.7409 18.1614C33.7101 18.1933 33.6737 18.2179 33.6339 18.2336C33.5941 18.2493 33.5519 18.2558 33.5098 18.2527H33.5093Z" fill="#9D9D9D"/>
</svg>
