<svg width="34" height="82" viewBox="0 0 34 82" fill="none" xmlns="http://www.w3.org/2000/svg">
<path d="M24.8248 10.2181H9.67533C9.27736 10.2181 8.95898 9.89871 8.95898 9.50695V3.08723C8.95898 1.93497 9.90085 1 11.0616 1H23.4385C24.5993 1 25.5411 1.93497 25.5411 3.08723V9.50695C25.5411 9.89871 25.2194 10.2181 24.8248 10.2181Z" stroke="#2796E7" stroke-width="2" stroke-miterlimit="10" stroke-linecap="round"/>
<path d="M10.7246 10.2211V15.6498H23.0551V10.2178" stroke="#2796E7" stroke-width="2" stroke-miterlimit="10" stroke-linecap="round"/>
<path d="M10.7238 15.6499L4.92665 22.0301C2.39953 24.8087 1 28.4235 1 32.17V78.5895C1 79.9228 2.08779 80.9993 3.42763 80.9993H17.5821" stroke="#2796E7" stroke-width="2" stroke-miterlimit="10" stroke-linecap="round"/>
<path d="M22.9502 15.6499L28.7473 22.0301C31.2744 24.812 32.6739 28.4235 32.6739 32.17V78.5895C32.6739 79.9228 31.5862 80.9993 30.2463 80.9993H16.0918" stroke="#2796E7" stroke-width="2" stroke-miterlimit="10" stroke-linecap="round"/>
<path d="M1.73047 37.481H32.3743" stroke="#2796E7" stroke-width="2" stroke-miterlimit="10" stroke-linecap="round"/>
<path d="M1.06641 47.2021L32.4398 47.2021" stroke="#2796E7" stroke-width="2" stroke-miterlimit="10" stroke-linecap="round"/>
<path d="M1.73047 55.7212H32.3743" stroke="#2796E7" stroke-width="2" stroke-miterlimit="10" stroke-linecap="round"/>
<path d="M1 64.4756H32.3734" stroke="#2796E7" stroke-width="2" stroke-miterlimit="10" stroke-linecap="round"/>
<path d="M9.12619 24.5391C9.12619 24.5391 6.80469 28.1604 6.80469 33.0987" stroke="#2796E7" stroke-width="2" stroke-miterlimit="10" stroke-linecap="round"/>
<path d="M27.0352 28.4897V33.7572" stroke="#2796E7" stroke-width="2" stroke-miterlimit="10" stroke-linecap="round"/>
<path d="M27.0352 70.1343V75.4017" stroke="#2796E7" stroke-width="2" stroke-miterlimit="10" stroke-linecap="round"/>
</svg>
